<svg width="576" height="70" viewBox="0 0 576 70" fill="none" xmlns="http://www.w3.org/2000/svg">
<g clip-path="url(#clip0_1_61)">
<rect width="576" height="70" fill="transparent"/>
<path d="M128.364 51.3453H98.3892L91.979 69.036H81.1365L106.497 1.35254H120.446L145.708 69.036H134.774L128.364 51.3453ZM125.068 42.259L117.339 20.9856L113.475 9.28779L109.519 20.9856L101.791 42.259H125.075H125.068Z" fill="#656A9C"/>
<path d="M190.775 40.5108V69.036H181.16V41.187C181.16 34.223 177.387 30.6475 171.264 30.6475C163.627 30.6475 158.724 36.446 158.724 47.1799V69.0288H149.109V22.6259H158.724V33.8417C160.891 26.3957 165.703 21.6619 174.56 21.6619C185.213 21.6619 190.775 28.2374 190.775 40.518V40.5108Z" fill="#656A9C"/>
<path d="M232.462 49.3093L241.979 51.7266C239.054 64.4892 230.477 70 219.831 70C205.783 70 196.266 60.3309 196.266 45.8273C196.266 31.3237 205.783 21.6547 219.831 21.6547C230.765 21.6547 239.153 27.4532 241.979 39.928L232.462 42.3453C230.765 33.3525 226.992 30.5467 219.74 30.5467C210.405 30.5467 205.98 35.3813 205.98 45.8273C205.98 56.2734 210.412 61.1079 219.74 61.1079C226.999 61.1079 230.765 58.3021 232.462 49.3093Z" fill="#656A9C"/>
<path d="M289.297 40.5108V69.036H279.682V41.1871C279.682 34.223 275.909 30.6475 269.787 30.6475C262.149 30.6475 257.247 36.4461 257.247 47.1799V69.0288H247.632V1.35254H257.247V33.8417C259.414 26.3957 264.225 21.6619 273.083 21.6619C283.736 21.6619 289.297 28.2374 289.297 40.518V40.5108Z" fill="#656A9C"/>
<path d="M342.388 45.8345C342.388 60.5324 331.735 70.0072 318.543 70.0072C305.351 70.0072 294.789 60.5324 294.789 45.8345C294.789 31.1367 305.442 21.6619 318.543 21.6619C331.644 21.6619 342.388 31.1367 342.388 45.8345ZM332.682 45.8345C332.682 35.4892 328.158 30.6547 318.543 30.6547C308.928 30.6547 304.495 35.4892 304.495 45.8345C304.495 56.1798 309.019 61.0144 318.543 61.0144C328.067 61.0144 332.682 56.1798 332.682 45.8345Z" fill="#656A9C"/>
<path d="M377.244 22.5252V32.1007C375.925 31.518 374.509 30.9424 371.114 30.9424C362.537 30.9424 357.824 38 357.824 48.928V69.0431H348.209V22.6259H357.824V36.1654C359.241 28.7194 362.818 21.7554 371.872 21.7554C373.849 21.7554 375.827 21.8489 377.244 22.5323V22.5252Z" fill="#656A9C"/>
<path d="M428.251 20.8849C428.251 32.4892 420.242 40.8058 405.914 40.8058H391.207V69.036H381.312V1.35254H405.914C420.242 1.35254 428.251 9.38132 428.251 20.8849ZM418.075 20.9784C418.075 13.6331 414.961 10.4389 406.952 10.4389H391.214V31.7122H406.952C414.961 31.7122 418.075 28.7122 418.075 20.9784Z" fill="#656A9C"/>
<path d="M474.806 45.8345C474.806 60.5324 464.152 70.0072 450.96 70.0072C437.768 70.0072 427.206 60.5324 427.206 45.8345C427.206 31.1367 437.86 21.6619 450.96 21.6619C464.061 21.6619 474.806 31.1367 474.806 45.8345ZM465.099 45.8345C465.099 35.4892 460.576 30.6547 450.96 30.6547C441.345 30.6547 436.913 35.4892 436.913 45.8345C436.913 56.1798 441.436 61.0144 450.96 61.0144C460.484 61.0144 465.099 56.1798 465.099 45.8345Z" fill="#656A9C"/>
<path d="M478.74 6.38129C478.649 2.22302 481.096 0 485.339 0C489.583 0 491.841 2.22302 491.939 6.38129C492.03 10.6331 489.674 13.0504 485.339 13.0504C481.005 13.0504 478.838 10.6331 478.74 6.38129ZM480.437 22.6259H490.052V69.036H480.437V22.6259Z" fill="#656A9C"/>
<path d="M540.443 40.5108V69.036H530.828V41.187C530.828 34.223 527.054 30.6475 520.932 30.6475C513.294 30.6475 508.392 36.446 508.392 47.1799V69.0288H498.777V22.6259H508.392V33.8417C510.559 26.3957 515.37 21.6619 524.228 21.6619C534.881 21.6619 540.443 28.2374 540.443 40.518V40.5108Z" fill="#656A9C"/>
<path d="M562.24 31.4244V60.2374H574.59V69.0359H565.164C557.625 69.0359 552.625 63.9136 552.625 56.1726V31.4172H543.108V22.6187H552.625V8.41003H562.24V22.6259H576V31.4244H562.24Z" fill="#656A9C"/>
<path d="M37.5491 68.3741C44.4281 68.3741 50.0047 62.6537 50.0047 55.5972C50.0047 48.5406 44.4281 42.8202 37.5491 42.8202C30.6701 42.8202 25.0935 48.5406 25.0935 55.5972C25.0935 62.6537 30.6701 68.3741 37.5491 68.3741Z" fill="#656A9C"/>
<path d="M75.0981 13.8417L64.5081 2.97839L37.5491 30.6331L10.59 2.98559L0 13.8417L12.5888 26.7554C26.3699 40.8921 48.7212 40.8921 62.5023 26.7554L75.0911 13.8417H75.0981Z" fill="#656A9C"/>
</g>
<defs>
<clipPath id="clip0_1_61">
<rect width="576" height="70" fill="white"/>
</clipPath>
</defs>
</svg>
