<svg width="293" height="35" viewBox="0 0 293 35" fill="none" xmlns="http://www.w3.org/2000/svg">
<g clip-path="url(#clip0_1_18)">
<path d="M65.2962 25.6727H50.0487L46.788 34.518H41.2726L54.1727 0.67627H61.2685L74.1187 34.518H68.5569L65.2962 25.6727ZM63.6195 21.1295L59.6881 10.4928L57.7224 4.6439L55.7103 10.4928L51.7789 21.1295H63.6231H63.6195Z" fill="#010101"/>
<path d="M97.0435 20.2554V34.518H92.1525V20.5935C92.1525 17.1115 90.2332 15.3237 87.1187 15.3237C83.2337 15.3237 80.74 18.223 80.74 23.5899V34.5144H75.8489V11.3129H80.74V16.9209C81.8424 13.1978 84.2897 10.8309 88.7954 10.8309C94.2145 10.8309 97.0435 14.1187 97.0435 20.259V20.2554Z" fill="#010101"/>
<path d="M118.249 24.6547L123.09 25.8634C121.602 32.2447 117.239 35.0001 111.824 35.0001C104.678 35.0001 99.8369 30.1655 99.8369 22.9137C99.8369 15.6619 104.678 10.8274 111.824 10.8274C117.386 10.8274 121.652 13.7267 123.09 19.9641L118.249 21.1727C117.386 16.6763 115.466 15.2734 111.777 15.2734C107.029 15.2734 104.778 17.6907 104.778 22.9137C104.778 28.1367 107.033 30.554 111.777 30.554C115.47 30.554 117.386 29.1511 118.249 24.6547Z" fill="#010101"/>
<path d="M147.16 20.2554V34.518H142.269V20.5935C142.269 17.1115 140.35 15.3237 137.235 15.3237C133.35 15.3237 130.856 18.223 130.856 23.5899V34.5144H125.965V0.67627H130.856V16.9209C131.959 13.1979 134.406 10.8309 138.912 10.8309C144.331 10.8309 147.16 14.1187 147.16 20.259V20.2554Z" fill="#010101"/>
<path d="M174.166 22.9173C174.166 30.2662 168.747 35.0036 162.037 35.0036C155.326 35.0036 149.953 30.2662 149.953 22.9173C149.953 15.5683 155.372 10.8309 162.037 10.8309C168.701 10.8309 174.166 15.5683 174.166 22.9173ZM169.229 22.9173C169.229 17.7446 166.928 15.3273 162.037 15.3273C157.145 15.3273 154.891 17.7446 154.891 22.9173C154.891 28.0899 157.192 30.5072 162.037 30.5072C166.881 30.5072 169.229 28.0899 169.229 22.9173Z" fill="#010101"/>
<path d="M191.897 11.2626V16.0503C191.226 15.759 190.505 15.4712 188.779 15.4712C184.416 15.4712 182.018 19 182.018 24.464V34.5216H177.127V11.3129H182.018V18.0827C182.739 14.3597 184.558 10.8777 189.164 10.8777C190.17 10.8777 191.176 10.9244 191.897 11.2662V11.2626Z" fill="#010101"/>
<path d="M217.843 10.4425C217.843 16.2446 213.769 20.4029 206.481 20.4029H199V34.518H193.966V0.67627H206.481C213.769 0.67627 217.843 4.69066 217.843 10.4425ZM212.667 10.4892C212.667 6.81656 211.083 5.21943 207.009 5.21943H199.003V15.8561H207.009C211.083 15.8561 212.667 14.3561 212.667 10.4892Z" fill="#010101"/>
<path d="M241.524 22.9173C241.524 30.2662 236.105 35.0036 229.395 35.0036C222.684 35.0036 217.312 30.2662 217.312 22.9173C217.312 15.5683 222.731 10.8309 229.395 10.8309C236.059 10.8309 241.524 15.5683 241.524 22.9173ZM236.587 22.9173C236.587 17.7446 234.286 15.3273 229.395 15.3273C224.504 15.3273 222.249 17.7446 222.249 22.9173C222.249 28.0899 224.55 30.5072 229.395 30.5072C234.239 30.5072 236.587 28.0899 236.587 22.9173Z" fill="#010101"/>
<path d="M243.526 3.19065C243.479 1.11151 244.724 0 246.883 0C249.041 0 250.19 1.11151 250.24 3.19065C250.286 5.31655 249.087 6.52518 246.883 6.52518C244.678 6.52518 243.576 5.31655 243.526 3.19065ZM244.389 11.3129H249.28V34.518H244.389V11.3129Z" fill="#010101"/>
<path d="M274.913 20.2554V34.518H270.022V20.5935C270.022 17.1115 268.102 15.3237 264.988 15.3237C261.103 15.3237 258.609 18.223 258.609 23.5899V34.5144H253.718V11.3129H258.609V16.9209C259.712 13.1978 262.159 10.8309 266.665 10.8309C272.084 10.8309 274.913 14.1187 274.913 20.259V20.2554Z" fill="#010101"/>
<path d="M286.001 15.7123V30.1187H292.283V34.518H287.488C283.653 34.518 281.109 31.9569 281.109 28.0864V15.7087H276.268V11.3094H281.109V4.20508H286.001V11.313H293V15.7123H286.001Z" fill="#010101"/>
<path d="M19.1005 34.187C22.5997 34.187 25.4364 31.3268 25.4364 27.7985C25.4364 24.2703 22.5997 21.41 19.1005 21.41C15.6013 21.41 12.7646 24.2703 12.7646 27.7985C12.7646 31.3268 15.6013 34.187 19.1005 34.187Z" fill="#010101"/>
<path d="M38.201 6.92091L32.814 1.48926L19.1005 15.3166L5.38695 1.49286L0 6.92091L6.40369 13.3777C13.4139 20.4461 24.7835 20.4461 31.7937 13.3777L38.1974 6.92091H38.201Z" fill="#010101"/>
</g>
<defs>
<clipPath id="clip0_1_18">
<rect width="293" height="35" fill="white"/>
</clipPath>
</defs>
</svg>
